<?xml version="1.0" encoding="utf-8"?>
<!-- Generator: Adobe Illustrator 19.1.0, SVG Export Plug-In . SVG Version: 6.00 Build 0)  -->
<svg version="1.1" id="Layer_1" xmlns="http://www.w3.org/2000/svg" xmlns:xlink="http://www.w3.org/1999/xlink" x="0px" y="0px"
	 width="35px" height="35px" viewBox="0 0 35 35" style="enable-background:new 0 0 35 35;" xml:space="preserve">
<style type="text/css">
	.st0{fill:#5EC2A6;}
	.st1{fill:none;stroke:#5DC2A6;stroke-width:2.2536;stroke-linecap:round;stroke-miterlimit:10;}
</style>
<g>
	<path class="st0" d="M25,10.6l-0.5-0.5c-0.3-0.3-0.8-0.3-1.2,0l-5.8,5.8L11.7,10c-0.3-0.3-0.8-0.3-1.2,0L10,10.5
		c-0.3,0.5-0.3,0.8,0,1.2l5.8,5.9L10,23.3c-0.3,0.3-0.3,0.8,0,1.2l0.5,0.5c0.3,0.3,0.8,0.3,1.2,0l5.8-5.8l5.8,5.8
		c0.3,0.3,0.8,0.3,1.2,0l0.5-0.5c0.3-0.3,0.3-0.9,0-1.2l-5.8-5.8l5.8-5.8C25.3,11.5,25.3,10.9,25,10.6z"/>
	<circle class="st1" cx="17.5" cy="17.5" r="16.3"/>
</g>
</svg>
