<svg xmlns="http://www.w3.org/2000/svg" version="1.1" x="0" y="0" width="57" height="57" viewBox="0 0 57 57" xml:space="preserve"><style type="text/css">
	.st0{fill:none;stroke:#9c9c9c;stroke-width:2.2536;stroke-miterlimit:10;}
	.st1{fill:none;stroke:#9c9c9c;stroke-width:2.2536;stroke-linecap:round;stroke-miterlimit:10;}
	.st2{fill:none;stroke:#9c9c9c;stroke-width:2.2536;stroke-linecap:round;stroke-linejoin:round;stroke-miterlimit:10;}
</style><path class="st0" d="M33.4 13.6H22.1c-6.3 0-11.3 5.1-11.3 11.3 0 6.3 5.1 11.3 11.3 11.3h1.1v5.7l6.8-5.7h3.4c6.3 0 11.3-5.1 11.3-11.3C44.8 18.7 39.7 13.6 33.4 13.6z"/><circle class="st1" cx="27.8" cy="27.8" r="26.6"/><path class="st2" d="M31.3 22.7c-0.5-1.9-1.8-2.7-3.5-2.7 -1.7 0-3.4 0.9-3.4 2.5 0 1.5 1 2 3.7 2.9 2.2 0.7 3.3 1.5 3.3 3 0 1.5-1.3 2.6-3.6 2.6 -2.3 0-3.5-1.6-3.7-3"/><line class="st2" x1="27.8" y1="18.2" x2="27.8" y2="20"/><line class="st2" x1="27.8" y1="32.8" x2="27.8" y2="31"/></svg>