<svg xmlns="http://www.w3.org/2000/svg" version="1.1" x="0" y="0" width="57" height="57" viewBox="0 0 58.3 58.3" xml:space="preserve"><style type="text/css">
	.st0{fill:none;stroke:#5BC1A5;stroke-width:2.2536;stroke-miterlimit:10;}
	.st1{fill:none;stroke:#5BC1A5;stroke-width:2.2536;stroke-linecap:round;stroke-miterlimit:10;}
</style><path class="st0" d="M38.8 34.7c0.4 0.3 1 0.6 0.9 1.5 -0.1 0.6-1.3 3-4 3 -2.7 0-6-2.1-8.8-5 -2.9-2.9-5-6.2-5-8.8s2.4-3.9 3-4c0.8-0.1 1.2 0.5 1.5 0.9 0.3 0.4 1.8 2.7 2 3.1 0.2 0.4 0.5 1.2-0.4 1.9 -0.9 0.7-1.7 1 1.6 4.2 3.3 3.3 3.5 2.4 4.2 1.6 0.7-0.9 1.6-0.6 1.9-0.4C36.1 32.9 38.4 34.4 38.8 34.7z"/><line class="st1" x1="12.4" y1="21.3" x2="17.1" y2="21.3"/><line class="st1" x1="12.4" y1="27.2" x2="17.1" y2="27.2"/><line class="st1" x1="12.4" y1="33.2" x2="17.1" y2="33.2"/><line class="st1" x1="12.4" y1="39.1" x2="17.1" y2="39.1"/><path class="st1" d="M44.5 16.5H17.7c-1.7 0-3-1.3-3-3l0 0c0-1.6 1.3-3 3-3h24.4v5.9M17.7 10.6c-1.6 0-3 1.3-3 3v29.7c0 1.6 1.3 3 3 3h26.8v-3V16.5"/><circle class="st1" cx="29.1" cy="29.1" r="28"/></svg>