<svg xmlns="http://www.w3.org/2000/svg" version="1.1" x="0" y="0" viewBox="-290 382 30 30" width="30" height="30" xml:space="preserve"><style type="text/css">
	.st0{fill:#009483;}
</style><path class="st0" d="M-278.1 404.8c-6 0-10.9-4.9-10.9-10.9s4.9-10.9 10.9-10.9 10.9 4.9 10.9 10.9S-272 404.8-278.1 404.8zM-278.1 384.5c-5.1 0-9.3 4.2-9.3 9.3 0 5.1 4.2 9.3 9.3 9.3s9.3-4.2 9.3-9.3C-268.8 388.7-273 384.5-278.1 384.5zM-261.4 411.5c-0.2 0-0.4-0.1-0.6-0.2l-9.5-9.6c-0.3-0.3-0.3-0.8 0-1.1 0.3-0.3 0.8-0.3 1.1 0l9.6 9.6c0.3 0.3 0.3 0.8 0 1.1C-261 411.4-261.2 411.5-261.4 411.5z"/></svg>