<svg xmlns="http://www.w3.org/2000/svg" version="1.1" x="0" y="0" viewBox="-290 382 30 30" width="30" height="30" xml:space="preserve"><style type="text/css">
	.st0{fill:#009483;}
</style><path class="st0" d="M-260.6 411.5h-28.9v-26.2h29L-260.6 411.5 -260.6 411.5zM-288.1 410.1h26.1v-23.4h-26.1V410.1zM-264.2 407.8h-21.6V389h21.7L-264.2 407.8 -264.2 407.8zM-284.5 406.4h18.9v-16h-18.9V406.4zM-275 392.2c-0.4 0-0.7-0.3-0.7-0.7v-8.3c0-0.4 0.3-0.7 0.7-0.7s0.7 0.3 0.7 0.7v8.3C-274.3 391.8-274.6 392.2-275 392.2zM-281.5 392.2c-0.4 0-0.7-0.3-0.7-0.7v-8.3c0-0.4 0.3-0.7 0.7-0.7s0.7 0.3 0.7 0.7v8.3C-280.8 391.8-281.1 392.2-281.5 392.2zM-268.6 392.2c-0.4 0-0.7-0.3-0.7-0.7v-8.3c0-0.4 0.3-0.7 0.7-0.7s0.7 0.3 0.7 0.7v8.3C-267.9 391.8-268.2 392.2-268.6 392.2z"/></svg>