<svg xmlns="http://www.w3.org/2000/svg" version="1.1" x="0" y="0" viewBox="-290 382 30 30" width="30" height="30" xml:space="preserve"><style type="text/css">
	.st0{fill:#009483;}
</style><path class="st0" d="M-274 395.4c-5.1-1.7-5.6-2.2-5.6-3.8 0-2 2.4-3.1 4.6-3.1 2.7 0 4.3 1.3 5.1 4 0.2 0.7 0.9 1.2 1.7 1 0.7-0.2 1.2-0.9 1-1.7 -0.9-3.4-3.2-5.4-6.3-5.8v-2.2c0-0.7-0.6-1.3-1.3-1.3 -0.7 0-1.3 0.6-1.3 1.3v2.2c-3.1 0.5-6 2.5-6 5.6 0 4.1 3.3 5.1 7.5 6.5 4.1 1.3 4.9 2.4 4.9 4.1 0 2.5-2.8 3.3-5.3 3.3 -3.4 0-5.1-2.2-5.3-4.2 0-0.7-0.7-1.2-1.4-1.2 -0.7 0-1.2 0.7-1.2 1.4 0.2 3 2.6 6 6.7 6.5v2.2c0 0.7 0.6 1.3 1.3 1.3s1.3-0.6 1.3-1.3v-2.3c3.9-0.4 6.5-2.6 6.4-5.8C-267.2 398.1-270.7 396.5-274 395.4z"/></svg>