<svg xmlns="http://www.w3.org/2000/svg" version="1.1" x="0" y="0" viewBox="-286.6 382 23.1 30" width="30" height="30" xml:space="preserve"><style type="text/css">
	.st0{fill:#009483;}
</style><path class="st0" d="M-275.1 411.5l-0.4-0.5c-0.4-0.4-9.3-10.3-9.3-18.8 0-5.4 4.4-9.8 9.8-9.8s9.8 4.4 9.8 9.8c0 8.4-8.9 18.3-9.3 18.8L-275.1 411.5zM-275.1 383.8c-4.7 0-8.6 3.8-8.6 8.6 0 6.9 6.7 15.3 8.6 17.4 1.8-2.2 8.6-10.5 8.6-17.4C-266.6 387.6-270.4 383.8-275.1 383.8zM-275.1 396.6c-2.4 0-4.3-1.9-4.3-4.3s1.9-4.3 4.3-4.3 4.3 1.9 4.3 4.3C-270.9 394.8-272.8 396.6-275.1 396.6zM-275.1 389.3c-1.7 0-3.1 1.3-3.1 3.1 0 1.7 1.3 3.1 3.1 3.1 1.8 0 3.1-1.3 3.1-3.1C-272 390.6-273.4 389.3-275.1 389.3z"/></svg>