<svg xmlns="http://www.w3.org/2000/svg" version="1.1" x="0" y="0" width="57" height="57" viewBox="0 0 57.4 57.4" xml:space="preserve"><style type="text/css">
	.st0{fill:none;stroke:#9c9c9c;stroke-width:2.2536;stroke-linecap:round;stroke-miterlimit:10;}
	.st1{fill:none;stroke:#9c9c9c;stroke-width:2.2536;stroke-miterlimit:10;}
</style><line class="st0" x1="24.2" y1="23.3" x2="24.5" y2="23.3"/><line class="st0" x1="24.2" y1="27.7" x2="24.5" y2="27.7"/><line class="st0" x1="24.2" y1="32" x2="24.5" y2="32"/><line class="st0" x1="24.2" y1="36.3" x2="24.5" y2="36.3"/><line class="st0" x1="28.1" y1="23.3" x2="33.3" y2="23.3"/><line class="st0" x1="28.1" y1="27.7" x2="33.3" y2="27.7"/><line class="st0" x1="28.1" y1="32" x2="33.3" y2="32"/><line class="st0" x1="28.1" y1="36.3" x2="33.3" y2="36.3"/><path class="st1" d="M34.9 15.2H41c0.6 0 1.1 0.5 1.1 1.1v28c0 0.6-0.5 1.1-1.1 1.1H16.4c-0.6 0-1.1-0.5-1.1-1.1v-28c0-0.6 0.5-1.1 1.1-1.1h6.1M32.6 14.1h-1.2c-0.3-1.3-1.4-2.2-2.7-2.2 -1.4 0-2.5 1-2.7 2.2h-1.2c-1.7 0-2.8 1.1-2.8 2.8v1.7h13.5v-1.7C35.4 15.2 34.2 14.1 32.6 14.1z"/><polyline class="st1" points="21.4 18.6 19.7 18.6 19.7 41 37.7 41 37.7 18.6 36 18.6 "/><circle class="st0" cx="28.7" cy="28.7" r="26.4"/></svg>